<?xml version="1.0" encoding="iso-8859-1"?>
<!-- Generator: Adobe Illustrator 19.0.0, SVG Export Plug-In . SVG Version: 6.00 Build 0)  -->
<svg version="1.1" id="Capa_1" xmlns="http://www.w3.org/2000/svg" xmlns:xlink="http://www.w3.org/1999/xlink" x="0px" y="0px"
	 viewBox="0 0 383.992 383.992" style="enable-background:new 0 0 383.992 383.992;" xml:space="preserve">
<path id="XMLID_495_" d="M238.846,221.045h-4.729v-19.489c7.819-3.132,15.191-7.156,21.967-12.015h40.833V104.92
	C296.917,47.067,249.85,0,191.996,0S87.076,47.067,87.076,104.92v84.621h40.832c6.776,4.859,14.148,8.883,21.967,12.015v19.489
	h-4.728c-44.314,0-80.366,36.052-80.366,80.366v82.581h254.43v-82.581C319.211,257.098,283.159,221.045,238.846,221.045z
	 M191.996,353.675c0,0-59.759-32.369-59.759-73.597c0-18.4,14.916-33.315,33.315-33.315c10.776,0,20.354,5.117,26.444,13.053
	c6.09-7.935,15.668-13.053,26.444-13.053c18.399,0,33.315,14.916,33.315,33.315C251.756,321.681,191.996,353.675,191.996,353.675z"
	/>
<g>
</g>
<g>
</g>
<g>
</g>
<g>
</g>
<g>
</g>
<g>
</g>
<g>
</g>
<g>
</g>
<g>
</g>
<g>
</g>
<g>
</g>
<g>
</g>
<g>
</g>
<g>
</g>
<g>
</g>
</svg>
